<?xml version="1.0" encoding="UTF-8"?>
<svg version="1.1" xmlns="http://www.w3.org/2000/svg" width="500" height="500">
<path d="M0 0 C165 0 330 0 500 0 C500 165 500 330 500 500 C335 500 170 500 0 500 C0 335 0 170 0 0 Z " fill="#FEFEFE" transform="translate(0,0)"/>
<path d="M0 0 C2.37518759 3.56278138 3.39121963 7.183537 4.5625 11.25 C4.78357422 11.98863281 5.00464844 12.72726563 5.23242188 13.48828125 C10.63328137 31.99152797 9.40702138 51.54661236 0.13671875 68.55078125 C-3.35182899 74.47419967 -8.08648273 79.24880573 -13 84 C-13.72195557 84.70552002 -13.72195557 84.70552002 -14.45849609 85.42529297 C-20.340374 91.12612947 -26.53014067 96.28640258 -33.05834961 101.2265625 C-46.49727 111.18367415 -46.49727 111.18367415 -57 124 C-57.45890625 124.71800781 -57.9178125 125.43601562 -58.390625 126.17578125 C-61.50380975 131.35547657 -62.96188985 136.05446006 -64 142 C-70.72696697 133.49416943 -75.18243939 123.41562689 -78 113 C-78.17587646 112.3512793 -78.35175293 111.70255859 -78.53295898 111.03417969 C-82.39901327 95.50070945 -81.67032202 79.12260006 -73.390625 65.31640625 C-71.7015597 62.77118628 -69.90482409 60.38705804 -68 58 C-67.45085937 57.27554688 -66.90171875 56.55109375 -66.3359375 55.8046875 C-56.66919824 43.92354101 -42.61191457 35.98747978 -29.81762695 27.94628906 C-11.83353263 16.91508404 -11.83353263 16.91508404 0 0 Z " fill="#A2BF41" transform="translate(277,6)"/>
<path d="M0 0 C0.69029297 0.29970703 1.38058594 0.59941406 2.09179688 0.90820312 C31.25161485 13.8042353 55.09687204 38.30972622 67 68 C70.59503031 78.26758975 73.14274384 88.21439644 73.23828125 99.11328125 C73.246353 100.00049362 73.25442474 100.88770599 73.26274109 101.80180359 C73.27655036 103.6820584 73.28728659 105.56233794 73.29516602 107.44262695 C73.30660352 109.33625815 73.32692213 111.22985926 73.35668945 113.12329102 C73.54908469 125.38391916 72.7011204 136.27333624 69 148 C68.67 148 68.34 148 68 148 C67.9906543 147.2879541 67.98130859 146.5759082 67.97167969 145.84228516 C67.75337979 132.45964536 67.21077315 119.24483721 65.1875 106 C65.03442383 104.97084473 64.88134766 103.94168945 64.72363281 102.88134766 C63.53502374 95.63553965 61.49609689 88.89647113 59 82 C58.75612549 81.30438965 58.51225098 80.6087793 58.26098633 79.89208984 C53.05370733 65.27716357 45.35213938 52.5711413 35 41 C34.11828125 39.97712891 34.11828125 39.97712891 33.21875 38.93359375 C23.38798657 28.26204134 10.44641747 21.02525551 -3 16 C-3.804375 15.67386719 -4.60875 15.34773438 -5.4375 15.01171875 C-19.63143629 9.33952072 -36.85333875 10.82253517 -51 16 C-54.98147256 17.98827554 -58.47749886 20.2890555 -62 23 C-63.09054688 23.80244141 -63.09054688 23.80244141 -64.203125 24.62109375 C-75.21911925 33.38763879 -81.14726789 47.51435728 -84 61 C-84.33 61 -84.66 61 -85 61 C-85.86745191 41.31366071 -81.60515103 21.95283108 -68 7 C-49.16428164 -9.9183099 -22.17163625 -9.86564811 0 0 Z " fill="#AC3932" transform="translate(309,185)"/>
<path d="M0 0 C1.010625 -0.00773437 2.02125 -0.01546875 3.0625 -0.0234375 C9.71533421 0.87894161 13.1220365 5.37591909 17 10.375 C19.71317978 14.00850948 22.35537864 17.69142025 25 21.375 C26.97270686 24.10889961 28.95349605 26.83679125 30.9375 29.5625 C31.4224292 30.23474609 31.9073584 30.90699219 32.40698242 31.59960938 C33.58002483 33.209643 34.78676973 34.79502877 36 36.375 C36.33 36.375 36.66 36.375 37 36.375 C37.19634033 35.42657227 37.39268066 34.47814453 37.5949707 33.50097656 C38.32823051 29.97270322 39.07504621 26.44741295 39.82592773 22.92285156 C40.14862833 21.39888871 40.46767926 19.87414818 40.78295898 18.34863281 C41.23757999 16.15213324 41.70538453 13.95879307 42.17578125 11.765625 C42.31341385 11.0863092 42.45104645 10.40699341 42.59284973 9.70709229 C43.41768626 5.93208558 44.39875301 3.26171059 47 0.375 C49.31 0.705 51.62 1.035 54 1.375 C54.25198639 8.26262801 53.39022719 14.19960159 51.75 20.875 C51.52401123 21.82608643 51.29802246 22.77717285 51.06518555 23.75708008 C50.60427995 25.69521812 50.13970794 27.63248811 49.67138672 29.56884766 C49.04147925 32.20163182 48.43836375 34.83865026 47.84765625 37.48046875 C47.67202148 38.25777344 47.49638672 39.03507812 47.31542969 39.8359375 C46.9882666 41.28434882 46.66451368 42.73353608 46.34472656 44.18359375 C45.59530031 47.43490072 44.87774198 49.55838703 43 52.375 C39.63671875 52.83984375 39.63671875 52.83984375 36 52.375 C33.76953125 50.56640625 33.76953125 50.56640625 31.8125 47.9375 C31.05195313 46.93203125 30.29140625 45.9265625 29.5078125 44.890625 C28.66815446 43.72141292 27.83242612 42.54937186 27 41.375 C26.54463867 40.73755859 26.08927734 40.10011719 25.62011719 39.44335938 C23.10685804 35.91627704 20.61521286 32.37424003 18.12890625 28.828125 C17.08622839 27.34354565 16.04325597 25.85917315 15 24.375 C14.46874512 23.61767578 13.93749023 22.86035156 13.39013672 22.08007812 C11.81767238 19.85396755 10.22442633 17.64429068 8.625 15.4375 C7.91186646 14.41716675 7.91186646 14.41716675 7.18432617 13.3762207 C4.22138185 9.33386254 2.1114978 7.45308877 -3 6.375 C-3.5443399 8.64521756 -4.08550706 10.91612833 -4.625 13.1875 C-4.8868811 14.28300171 -4.8868811 14.28300171 -5.15405273 15.40063477 C-6.33700156 20.40213631 -7.43963197 25.41550403 -8.49609375 30.4453125 C-8.75503418 31.66114014 -9.01397461 32.87696777 -9.28076172 34.12963867 C-9.79885104 36.57041865 -10.30711611 39.01330615 -10.80517578 41.45825195 C-11.04606934 42.58448975 -11.28696289 43.71072754 -11.53515625 44.87109375 C-11.745354 45.88357178 -11.95555176 46.8960498 -12.17211914 47.93920898 C-13 50.375 -13 50.375 -16 52.375 C-19.6875 52 -19.6875 52 -23 51.375 C-23.28092461 45.65021208 -22.27908318 40.97866465 -20.6875 35.5 C-18.6821585 28.34539107 -17.11993653 21.26765246 -16.16479492 13.89501953 C-15.30671346 8.10742769 -13.25011805 5.06999024 -8.625 1.5859375 C-5.55495738 0.1696976 -3.37083811 -0.02579723 0 0 Z " fill="#BDCC42" transform="translate(235,268.625)"/>
<path d="M0 0 C0.91169952 -0.00953201 1.82339905 -0.01906403 2.76272583 -0.02888489 C3.74707611 -0.02797348 4.73142639 -0.02706207 5.74560547 -0.02612305 C6.76322968 -0.03040817 7.78085388 -0.0346933 8.82931519 -0.03910828 C10.98630022 -0.04485564 13.14330463 -0.04534886 15.30029297 -0.04101562 C18.57928249 -0.0378739 21.85735374 -0.06124653 25.13623047 -0.08666992 C27.23518767 -0.08894488 29.33414728 -0.0896455 31.43310547 -0.08862305 C32.40531036 -0.09783279 33.37751526 -0.10704254 34.37918091 -0.11653137 C41.92021315 -0.06605762 48.38080601 0.99197391 54.55029297 5.5246582 C57.15166082 9.21692225 57.21926283 10.81269202 56.48779297 15.2746582 C54.17922461 21.61343911 51.74268186 26.21103916 45.48779297 29.2746582 C40.3116152 31.40622454 35.75967341 31.554669 30.25732422 31.5480957 C28.46760422 31.56836709 26.67789071 31.58921751 24.88818359 31.6105957 C22.08352129 31.63327159 19.27911531 31.64970211 16.47436523 31.65551758 C13.75572215 31.66500922 11.03821412 31.69872091 8.31982422 31.7355957 C7.47917923 31.73055023 6.63853424 31.72550476 5.77241516 31.7203064 C1.22990339 31.73909416 1.22990339 31.73909416 -2.4934082 34.06738281 C-3.4367501 36.11117724 -4.14896756 37.93799474 -4.64501953 40.13012695 C-4.81130859 40.83459961 -4.97759766 41.53907227 -5.14892578 42.26489258 C-5.31005859 42.98999023 -5.47119141 43.71508789 -5.63720703 44.4621582 C-7.40295618 52.16540735 -7.40295618 52.16540735 -8.51220703 53.2746582 C-11.18279554 53.41580982 -13.83652941 53.31712928 -16.51220703 53.2746582 C-16.94573844 45.90462428 -16.66481672 36.51346114 -12.11767578 30.3996582 C-10.57470703 29.0871582 -10.57470703 29.0871582 -7.51220703 27.2746582 C-6.87283203 26.8621582 -6.23345703 26.4496582 -5.57470703 26.0246582 C0.05584638 23.97718423 6.23482598 24.09871512 12.15966797 23.9934082 C12.96390198 23.97499878 13.76813599 23.95658936 14.59674072 23.93762207 C18.01033215 23.8594957 21.42409625 23.79100854 24.83789062 23.72241211 C27.3410818 23.6706874 29.84410551 23.61347883 32.34716797 23.5559082 C33.50499786 23.53554504 33.50499786 23.53554504 34.68621826 23.51477051 C37.86362824 23.44078397 40.45267215 23.28636514 43.48779297 22.2746582 C44.60725426 19.3832496 44.59547494 16.59703208 44.55029297 13.5246582 C44.54126953 12.72543945 44.53224609 11.9262207 44.52294922 11.1027832 C44.51134766 10.49950195 44.49974609 9.8962207 44.48779297 9.2746582 C41.10386289 7.58269316 37.26301506 8.15479272 33.54248047 8.17700195 C32.65746857 8.1784169 31.77245667 8.17983185 30.86062622 8.18128967 C28.02798106 8.1868968 25.19541433 8.19945049 22.36279297 8.2121582 C20.44482536 8.21717229 18.52685651 8.22173535 16.60888672 8.22583008 C11.90182515 8.23686854 7.19482237 8.25413795 2.48779297 8.2746582 C2.29443359 9.03391602 2.10107422 9.79317383 1.90185547 10.57543945 C1.51126953 12.06624023 1.51126953 12.06624023 1.11279297 13.5871582 C0.85755859 14.57329102 0.60232422 15.55942383 0.33935547 16.57543945 C-0.51220703 19.2746582 -0.51220703 19.2746582 -2.51220703 22.2746582 C-6.07470703 22.5246582 -6.07470703 22.5246582 -9.51220703 22.2746582 C-10.51220703 21.2746582 -10.51220703 21.2746582 -10.76220703 18.4621582 C-10.68221064 12.97669114 -9.4043378 7.40599225 -7.51220703 2.2746582 C-4.36097683 0.17383807 -3.59867878 0.0206961 0 0 Z " fill="#BFCE48" transform="translate(152.51220703125,267.725341796875)"/>
<path d="M0 0 C6.45701727 4.16072075 12.12570544 8.85922268 14.6875 16.25 C14.06746094 15.93546875 13.44742188 15.6209375 12.80859375 15.296875 C-4.05156572 7.14902501 -24.19749315 3.48195831 -42.52734375 9.15234375 C-61.21478032 16.51723811 -73.67163081 27.63230717 -83.7109375 44.6875 C-84.50371094 45.9559375 -84.50371094 45.9559375 -85.3125 47.25 C-85.6425 47.25 -85.9725 47.25 -86.3125 47.25 C-87.5638495 34.68088943 -81.61578386 24.13001658 -74.3125 14.25 C-56.2386426 -7.54607432 -24.69514231 -13.65320557 0 0 Z " fill="#D83A38" transform="translate(204.3125,237.75)"/>
<path d="M0 0 C1.1650708 0.00424484 2.3301416 0.00848969 3.53051758 0.01286316 C7.22891965 0.02957225 10.92676434 0.06721114 14.625 0.10546875 C17.14191918 0.12052558 19.65884695 0.13421223 22.17578125 0.14648438 C28.325709 0.17945036 34.47531467 0.2295724 40.625 0.29296875 C41.25 2.16796875 41.25 2.16796875 41.625 4.29296875 C39.14290864 6.77506011 38.40012147 6.54702314 34.97924805 6.56420898 C34.01452072 6.5743956 33.0497934 6.58458221 32.05583191 6.59507751 C31.01002457 6.59721756 29.96421722 6.5993576 28.88671875 6.6015625 C26.68294011 6.62672638 24.47916413 6.65212435 22.27539062 6.67773438 C18.79273183 6.70647202 15.3101194 6.73048159 11.82739258 6.74926758 C8.47191965 6.77092193 5.11700034 6.81036845 1.76171875 6.8515625 C0.20211678 6.85173622 0.20211678 6.85173622 -1.38899231 6.85191345 C-8.48776606 6.78223027 -8.48776606 6.78223027 -14.375 10.29296875 C-15.60916535 13.26491402 -15.60916535 13.26491402 -16.17578125 16.75390625 C-16.43037109 18.03007812 -16.68496094 19.30625 -16.94726562 20.62109375 C-17.19406052 21.97004292 -17.44080483 23.31900134 -17.6875 24.66796875 C-17.95194736 26.00947636 -18.21820528 27.35062841 -18.48632812 28.69140625 C-20.10118535 36.43065771 -20.10118535 36.43065771 -20.375 44.29296875 C-18.76815391 45.89981484 -17.03502929 45.44193206 -14.81103516 45.46655273 C-13.3541478 45.48678749 -13.3541478 45.48678749 -11.86782837 45.50743103 C-10.81058563 45.51786942 -9.7533429 45.5283078 -8.6640625 45.5390625 C-6.4479127 45.57199998 -4.23176697 45.60521165 -2.015625 45.63867188 C1.49573978 45.6861294 5.00708795 45.73054793 8.51855469 45.76977539 C11.89536 45.80941037 15.27182066 45.86097796 18.6484375 45.9140625 C20.22822891 45.92668373 20.22822891 45.92668373 21.8399353 45.93955994 C23.30627914 45.96452293 23.30627914 45.96452293 24.80224609 45.98999023 C26.09344864 46.00545143 26.09344864 46.00545143 27.41073608 46.02122498 C29.625 46.29296875 29.625 46.29296875 32.625 48.29296875 C32.625 49.28296875 32.625 50.27296875 32.625 51.29296875 C30.10055587 52.55519082 28.34580928 52.42677188 25.52026367 52.43823242 C24.45543259 52.44461227 23.3906015 52.45099213 22.29350281 52.45756531 C20.56073845 52.45923454 20.56073845 52.45923454 18.79296875 52.4609375 C17.60907059 52.4642659 16.42517242 52.4675943 15.20539856 52.47102356 C12.69609975 52.47609452 10.18679417 52.47843183 7.67749023 52.47827148 C3.83891651 52.48045373 0.00063204 52.49859628 -3.83789062 52.51757812 C-6.27343652 52.52051284 -8.70898377 52.52249711 -11.14453125 52.5234375 C-12.2936348 52.53062302 -13.44273834 52.53780853 -14.62666321 52.54521179 C-15.70095078 52.54213516 -16.77523834 52.53905853 -17.88208008 52.53588867 C-18.82424881 52.53731369 -19.76641754 52.53873871 -20.73713684 52.54020691 C-24.37581363 52.19916581 -27.23092599 51.14228133 -30.1640625 48.96484375 C-33.3193506 44.6085105 -31.58464634 37.62072888 -30.80078125 32.65625 C-30.06144455 28.85003514 -29.23495886 25.07361737 -28.375 21.29296875 C-28.14683594 20.16632813 -27.91867187 19.0396875 -27.68359375 17.87890625 C-26.34660581 11.72112178 -25.20601675 7.47984993 -20.375 3.29296875 C-13.53070459 0.00587997 -7.51182143 -0.10403388 0 0 Z " fill="#BDCC42" transform="translate(324.375,268.70703125)"/>
<path d="M0 0 C12.42413658 1.87904549 23.14642702 6.18158839 33 14 C33.69738281 14.52207031 34.39476562 15.04414063 35.11328125 15.58203125 C43.50455941 22.27876003 50.35157393 32.53141821 53 43 C52.505 43.99 52.505 43.99 52 45 C51.47792969 44.3709375 50.95585937 43.741875 50.41796875 43.09375 C42.40220703 33.77244391 33.81992667 26.75412765 22 23 C20.92105469 22.6390625 19.84210938 22.278125 18.73046875 21.90625 C14.53872831 20.88794238 10.84579107 20.77311018 6.5625 20.875 C5.46518555 20.88853516 5.46518555 20.88853516 4.34570312 20.90234375 C2.56365702 20.92563847 0.78178241 20.9614981 -1 21 C-1.0270203 18.24993392 -1.04684883 15.50013454 -1.0625 12.75 C-1.07087891 11.97269531 -1.07925781 11.19539062 -1.08789062 10.39453125 C-1.09111328 9.64042969 -1.09433594 8.88632813 -1.09765625 8.109375 C-1.10289307 7.41811523 -1.10812988 6.72685547 -1.11352539 6.01464844 C-0.99437971 3.90026102 -0.57618237 2.03358485 0 0 Z " fill="#613B2F" transform="translate(158,189)"/>
<path d="M0 0 C3.3825 -0.061875 6.765 -0.12375 10.25 -0.1875 C11.30993164 -0.21481201 12.36986328 -0.24212402 13.46191406 -0.27026367 C14.72600098 -0.28150269 14.72600098 -0.28150269 16.015625 -0.29296875 C16.87446289 -0.3086792 17.73330078 -0.32438965 18.61816406 -0.34057617 C21.52438812 0.0749817 22.87974187 1.00151956 25 3 C25.4609375 5.19140625 25.4609375 5.19140625 25.375 7.5625 C25.35566406 8.74005859 25.35566406 8.74005859 25.3359375 9.94140625 C25 12 25 12 23 14 C21.12060547 14.22705078 21.12060547 14.22705078 18.8671875 14.1953125 C17.65869141 14.18564453 17.65869141 14.18564453 16.42578125 14.17578125 C15.58402344 14.15902344 14.74226562 14.14226562 13.875 14.125 C12.60076172 14.11146484 12.60076172 14.11146484 11.30078125 14.09765625 C9.20040116 14.07405647 7.10016556 14.03818483 5 14 C5 16.97 5 19.94 5 23 C3.35 23 1.7 23 0 23 C0 15.41 0 7.82 0 0 Z " fill="#AF413A" transform="translate(136,334)"/>
<path d="M0 0 C3.09375 -0.04125 6.1875 -0.0825 9.375 -0.125 C10.83558838 -0.15231201 10.83558838 -0.15231201 12.32568359 -0.18017578 C13.09219238 -0.1851709 13.85870117 -0.19016602 14.6484375 -0.1953125 C15.82672119 -0.21102295 15.82672119 -0.21102295 17.02880859 -0.22705078 C19 0 19 0 21 2 C21.23046875 4.12890625 21.23046875 4.12890625 21.1875 6.5625 C21.18105469 7.36816406 21.17460937 8.17382812 21.16796875 9.00390625 C21 11 21 11 20 12 C18.33382885 12.04063832 16.66611905 12.042721 15 12 C15 12.66 15 13.32 15 14 C15.598125 14.268125 16.19625 14.53625 16.8125 14.8125 C18.97224808 15.98493467 20.35790256 17.19369282 22 19 C15.9296875 19.7284375 15.9296875 19.7284375 13.33984375 17.69921875 C12.34520112 16.63334851 11.38166173 15.53729946 10.45703125 14.41015625 C8.70831505 12.71769902 7.36807402 12.40059496 5 12 C5 14.64 5 17.28 5 20 C3.35 20 1.7 20 0 20 C0 13.4 0 6.8 0 0 Z " fill="#B34B45" transform="translate(167,338)"/>
<path d="M0 0 C5.41543537 1.08308707 5.81188089 1.38516751 8.8125 5.5625 C9.41707031 6.38878906 10.02164062 7.21507812 10.64453125 8.06640625 C11.09183594 8.70449219 11.53914063 9.34257812 12 10 C16.29700239 8.56766587 17.65345856 5.56181893 20.18359375 1.93359375 C20.78300781 1.29550781 21.38242187 0.65742188 22 0 C23.32 0 24.64 0 26 0 C26 6.6 26 13.2 26 20 C24.35 19.67 22.7 19.34 21 19 C20.505 14.05 20.505 14.05 20 9 C18.02 11.64 16.04 14.28 14 17 C9.46213776 14.73106888 8.05321843 12.90133466 5 9 C4.67 12.63 4.34 16.26 4 20 C2.68 20 1.36 20 0 20 C0 13.4 0 6.8 0 0 Z " fill="#B7544E" transform="translate(261,338)"/>
<path d="M0 0 C1 1 1 1 1.09765625 3.72265625 C1.08605469 4.82480469 1.07445312 5.92695313 1.0625 7.0625 C1.05347656 8.16722656 1.04445313 9.27195312 1.03515625 10.41015625 C1.02355469 11.26480469 1.01195312 12.11945313 1 13 C-0.45792884 13.05399736 -1.91642712 13.09279177 -3.375 13.125 C-4.18710937 13.14820313 -4.99921875 13.17140625 -5.8359375 13.1953125 C-8 13 -8 13 -10 11 C-10.66 11.66 -11.32 12.32 -12 13 C-15.5 13.25 -15.5 13.25 -19 13 C-21 11 -21 11 -21.265625 8.90625 C-21.25789063 7.71515625 -21.25789063 7.71515625 -21.25 6.5 C-21.25515625 5.7059375 -21.2603125 4.911875 -21.265625 4.09375 C-21 2 -21 2 -19 0 C-15.5625 -0.125 -15.5625 -0.125 -12 0 C0 0 0 0 0 0 Z " fill="#F7EDEC" transform="translate(330,395)"/>
<path d="M0 0 C3.69416189 0.8587904 3.97482986 1.36305311 5.94921875 4.421875 C6.83942823 5.99369263 7.70588175 7.57915092 8.55078125 9.17578125 C9.00066406 9.97822266 9.45054687 10.78066406 9.9140625 11.60742188 C13.17578125 17.48148984 13.17578125 17.48148984 13.17578125 18.73828125 C10.80078125 18.92578125 10.80078125 18.92578125 8.17578125 18.73828125 C7.51578125 17.74828125 6.85578125 16.75828125 6.17578125 15.73828125 C3.05967571 15.15235491 3.05967571 15.15235491 -0.44921875 15.05078125 C-1.63773438 14.98503906 -2.82625 14.91929687 -4.05078125 14.8515625 C-4.96601563 14.81417969 -5.88125 14.77679688 -6.82421875 14.73828125 C-7.15421875 16.05828125 -7.48421875 17.37828125 -7.82421875 18.73828125 C-9.47421875 18.73828125 -11.12421875 18.73828125 -12.82421875 18.73828125 C-11.20645447 15.37883883 -9.53290661 12.05238462 -7.82421875 8.73828125 C-7.21320313 7.52785156 -7.21320313 7.52785156 -6.58984375 6.29296875 C-6.1928125 5.57367188 -5.79578125 4.854375 -5.38671875 4.11328125 C-5.03738281 3.46101563 -4.68804687 2.80875 -4.328125 2.13671875 C-2.82421875 0.73828125 -2.82421875 0.73828125 0 0 Z " fill="#AE4039" transform="translate(242.82421875,338.26171875)"/>
<path d="M0 0 C2.38671875 0.15234375 2.38671875 0.15234375 5 1 C7.15104122 3.80963162 8.42491203 6.80482155 10 10 C10.33 6.7 10.66 3.4 11 0 C11.99 0 12.98 0 14 0 C14 5.94 14 11.88 14 18 C9 17 9 17 7.41796875 14.93359375 C5.70898438 11.46679688 5.70898438 11.46679688 4 8 C3.67 11.3 3.34 14.6 3 18 C1.68 18 0.36 18 -1 18 C-1.02684312 15.18743719 -1.04676188 12.37512759 -1.0625 9.5625 C-1.07087891 8.76005859 -1.07925781 7.95761719 -1.08789062 7.13085938 C-1.0965143 5.08704779 -1.0522815 3.04316098 -1 1 C-0.67 0.67 -0.34 0.34 0 0 Z " fill="#B2453F" transform="translate(349,390)"/>
<path d="M0 0 C1.65 0 3.3 0 5 0 C5.84124316 2.24732102 6.67314832 4.49738785 7.5 6.75 C7.73847656 7.38421875 7.97695313 8.0184375 8.22265625 8.671875 C9.44801758 12.03286607 10 14.36871587 10 18 C8.68 17.67 7.36 17.34 6 17 C6 16.01 6 15.02 6 14 C3.36 14 0.72 14 -2 14 C-2 15.32 -2 16.64 -2 18 C-3.32 18 -4.64 18 -6 18 C-4.41039668 11.76559832 -2.72399099 5.83712355 0 0 Z " fill="#B1423C" transform="translate(52,390)"/>
<path d="M0 0 C0.99 0 1.98 0 3 0 C3 1.32 3 2.64 3 4 C6.67788118 5.22596039 7.78449613 4.84310077 12 4 C12 8.29 12 12.58 12 17 C10.68 17 9.36 17 8 17 C7.67 16.34 7.34 15.68 7 15 C6.67 15.66 6.34 16.32 6 17 C4.33388095 17.042721 2.66617115 17.04063832 1 17 C0 16 0 16 -0.09765625 13.71484375 C-0.08025391 12.34005859 -0.08025391 12.34005859 -0.0625 10.9375 C-0.05347656 10.01839844 -0.04445313 9.09929687 -0.03515625 8.15234375 C-0.02355469 7.44207031 -0.01195312 6.73179687 0 6 C-0.66 6 -1.32 6 -2 6 C-2 5.34 -2 4.68 -2 4 C-1.34 4 -0.68 4 0 4 C0 2.68 0 1.36 0 0 Z " fill="#F8EFEE" transform="translate(410,391)"/>
<path d="M0 0 C3.375 0.9375 3.375 0.9375 5.375 3.9375 C5.72245351 7.20356297 5.65873354 9.30327208 4.3125 12.3125 C2.375 13.9375 2.375 13.9375 -1.125 14.375 C-4.625 13.9375 -4.625 13.9375 -6.5625 12.875 C-8.26402633 9.7722167 -8.05019574 7.39980815 -7.625 3.9375 C-5.3368323 0.27643167 -4.34846249 -0.07497349 0 0 Z " fill="#B2463F" transform="translate(144.625,394.0625)"/>
<path d="M0 0 C3.375 0.875 3.375 0.875 5.375 2.875 C5.92739643 9.83519496 5.92739643 9.83519496 4.3125 12.875 C1.24284865 14.45933618 -1.24181143 14.23748449 -4.625 13.875 C-6.5625 12.8125 -6.5625 12.8125 -7.625 10.875 C-8.12391602 6.95494554 -8.17753414 4.75905462 -6.0625 1.375 C-3.625 -0.125 -3.625 -0.125 0 0 Z " fill="#B34841" transform="translate(432.625,394.125)"/>
<path d="M0 0 C0.99 0 1.98 0 3 0 C3 1.32 3 2.64 3 4 C3.99 4 4.98 4 6 4 C6 4.99 6 5.98 6 7 C5.01 7 4.02 7 3 7 C3 9.31 3 11.62 3 14 C3.99 14 4.98 14 6 14 C6 14.99 6 15.98 6 17 C3.625 17.125 3.625 17.125 1 17 C-2.00617269 13.99382731 -1.59585316 11.17618402 -2 7 C-3.65 7.33 -5.3 7.66 -7 8 C-7.33 10.97 -7.66 13.94 -8 17 C-8.99 17 -9.98 17 -11 17 C-11 12.71 -11 8.42 -11 4 C-7.7 4 -4.4 4 -1 4 C-0.67 2.68 -0.34 1.36 0 0 Z " fill="#B54E48" transform="translate(243,391)"/>
<path d="M0 0 C2.1875 -0.3125 2.1875 -0.3125 5 0 C7.8125 2.5 7.8125 2.5 10 5 C12.23212073 3.99939416 13.80255169 3.22320243 15.4375 1.375 C17 0 17 0 19.6875 -0.1875 C20.450625 -0.125625 21.21375 -0.06375 22 0 C20.84039991 3.01496023 19.31294905 4.6650735 16.9375 6.75 C13.29511261 10.20628001 13.16923131 13.09229214 13 18 C11.68 18 10.36 18 9 18 C9 16.845 9 15.69 9 14.5 C8.42332144 9.35566111 5.4586256 6.96701239 1.71484375 3.6640625 C1.14894531 3.11492187 0.58304688 2.56578125 0 2 C0 1.34 0 0.68 0 0 Z " fill="#B0433C" transform="translate(207,339)"/>
<path d="M0 0 C0.99 0 1.98 0 3 0 C3.33 1.98 3.66 3.96 4 6 C4.763125 5.773125 5.52625 5.54625 6.3125 5.3125 C9 5 9 5 10.65625 6.125 C12.51601684 8.72002349 12.29889552 10.5312937 12.1875 13.6875 C12.16042969 14.68136719 12.13335937 15.67523438 12.10546875 16.69921875 C12.07066406 17.45847656 12.03585938 18.21773438 12 19 C10.68 19 9.36 19 8 19 C8 15.7 8 12.4 8 9 C6.68 9.33 5.36 9.66 4 10 C3.67 12.97 3.34 15.94 3 19 C2.01 19 1.02 19 0 19 C0 12.73 0 6.46 0 0 Z " fill="#B7524C" transform="translate(180,389)"/>
<path d="M0 0 C1 1 1 1 1.09765625 3.72265625 C1.08605469 4.82480469 1.07445312 5.92695313 1.0625 7.0625 C1.05347656 8.16722656 1.04445312 9.27195312 1.03515625 10.41015625 C1.02355469 11.26480469 1.01195312 12.11945313 1 13 C-0.64574566 13.02688151 -2.29161413 13.04634123 -3.9375 13.0625 C-4.85402344 13.07410156 -5.77054688 13.08570313 -6.71484375 13.09765625 C-9 13 -9 13 -10 12 C-10.1875 9.5625 -10.1875 9.5625 -10 7 C-8 5 -8 5 -4.875 4.875 C-3.92625 4.91625 -2.9775 4.9575 -2 5 C-2.33 4.34 -2.66 3.68 -3 3 C-5.31 3 -7.62 3 -10 3 C-9.67 2.01 -9.34 1.02 -9 0 C-5.90842747 -1.54578627 -3.31526981 -0.60277633 0 0 Z " fill="#BC5F59" transform="translate(215,434)"/>
<path d="M0 0 C1 1 1 1 1.09765625 3.72265625 C1.08605469 4.82480469 1.07445313 5.92695313 1.0625 7.0625 C1.05347656 8.16722656 1.04445313 9.27195312 1.03515625 10.41015625 C1.02355469 11.26480469 1.01195313 12.11945313 1 13 C-0.64574566 13.02688151 -2.29161413 13.04634123 -3.9375 13.0625 C-4.85402344 13.07410156 -5.77054687 13.08570313 -6.71484375 13.09765625 C-9 13 -9 13 -10 12 C-10.1875 9.5625 -10.1875 9.5625 -10 7 C-8 5 -8 5 -4.875 4.875 C-3.92625 4.91625 -2.9775 4.9575 -2 5 C-2.33 4.34 -2.66 3.68 -3 3 C-5.31 3 -7.62 3 -10 3 C-9.67 2.01 -9.34 1.02 -9 0 C-5.90842747 -1.54578627 -3.31526981 -0.60277633 0 0 Z " fill="#BC5F59" transform="translate(101,395)"/>
<path d="M0 0 C0.8146875 0.00257813 1.629375 0.00515625 2.46875 0.0078125 C3.2834375 0.00523437 4.098125 0.00265625 4.9375 0 C6.96875 0.1328125 6.96875 0.1328125 7.96875 1.1328125 C8.04080511 2.81890216 8.05261068 4.50781909 8.03125 6.1953125 C8.02222656 7.11441406 8.01320313 8.03351563 8.00390625 8.98046875 C7.99230469 9.69074219 7.98070312 10.40101563 7.96875 11.1328125 C6.32300434 11.15969401 4.67713587 11.17915373 3.03125 11.1953125 C2.11472656 11.20691406 1.19820313 11.21851563 0.25390625 11.23046875 C-2.03125 11.1328125 -2.03125 11.1328125 -3.03125 10.1328125 C-3.1291557 8.63543126 -3.16099864 7.13338358 -3.15625 5.6328125 C-3.15882813 4.818125 -3.16140625 4.0034375 -3.1640625 3.1640625 C-2.98414019 0.4123095 -2.751753 0.17992231 0 0 Z " fill="#937971" transform="translate(280.03125,363.8671875)"/>
<path d="M0 0 C2 3 2 3 2 7 C-0.97 7 -3.94 7 -7 7 C-6.01 8.485 -6.01 8.485 -5 10 C-1.91634129 10.2502157 -1.91634129 10.2502157 1 10 C0.67 10.99 0.34 11.98 0 13 C-6.0546875 13.1953125 -6.0546875 13.1953125 -8 13 C-10.40346379 10.59653621 -10.32083747 9.86099805 -10.375 6.5625 C-10.26642418 2.34840085 -10.26642418 2.34840085 -8.375 -0.125 C-5.17160276 -1.30519898 -3.24193891 -0.98667706 0 0 Z " fill="#B95751" transform="translate(239,434)"/>
<path d="M0 0 C2 2 2 2 2.125 4.625 C2.08375 5.40875 2.0425 6.1925 2 7 C-0.64 7 -3.28 7 -6 7 C-6 7.99 -6 8.98 -6 10 C-3.36 10 -0.72 10 2 10 C1.67 10.99 1.34 11.98 1 13 C-6.32215357 13.36010591 -6.32215357 13.36010591 -9 11.9375 C-10.58433618 8.86784865 -10.36248449 6.38318857 -10 3 C-7.77611809 -1.05531408 -4.20231132 -0.3820283 0 0 Z " fill="#B95651" transform="translate(124,395)"/>
<path d="M0 0 C2 2 2 2 2.1953125 4.6015625 C2.17210937 5.59929687 2.14890625 6.59703125 2.125 7.625 C2.10695313 8.62789063 2.08890625 9.63078125 2.0703125 10.6640625 C2.03550781 11.82035156 2.03550781 11.82035156 2 13 C0.68 13 -0.64 13 -2 13 C-2 9.7 -2 6.4 -2 3 C-3.32 3 -4.64 3 -6 3 C-6 6.3 -6 9.6 -6 13 C-7.32 13 -8.64 13 -10 13 C-10 8.71 -10 4.42 -10 0 C-2.9787234 -1.17021277 -2.9787234 -1.17021277 0 0 Z " fill="#B44B45" transform="translate(289,434)"/>
<path d="M0 0 C2 2 2 2 2.1953125 4.6015625 C2.17210937 5.59929687 2.14890625 6.59703125 2.125 7.625 C2.10695313 8.62789063 2.08890625 9.63078125 2.0703125 10.6640625 C2.03550781 11.82035156 2.03550781 11.82035156 2 13 C0.68 13 -0.64 13 -2 13 C-2 9.7 -2 6.4 -2 3 C-3.32 3 -4.64 3 -6 3 C-6 6.3 -6 9.6 -6 13 C-7.32 13 -8.64 13 -10 13 C-10 8.71 -10 4.42 -10 0 C-2.9787234 -1.17021277 -2.9787234 -1.17021277 0 0 Z " fill="#B44B45" transform="translate(451,395)"/>
<path d="M0 0 C1 1 1 1 1.09765625 3.72265625 C1.08605469 4.82480469 1.07445312 5.92695313 1.0625 7.0625 C1.05347656 8.16722656 1.04445313 9.27195312 1.03515625 10.41015625 C1.02355469 11.26480469 1.01195312 12.11945313 1 13 C-0.45792884 13.05399736 -1.91642712 13.09279177 -3.375 13.125 C-4.18710937 13.14820313 -4.99921875 13.17140625 -5.8359375 13.1953125 C-8 13 -8 13 -10 11 C-9.625 8.375 -9.625 8.375 -9 6 C-5.535 5.505 -5.535 5.505 -2 5 C-2.33 4.34 -2.66 3.68 -3 3 C-4.98 3 -6.96 3 -9 3 C-9 2.01 -9 1.02 -9 0 C-5.90842747 -1.54578627 -3.31526981 -0.60277633 0 0 Z " fill="#B0413A" transform="translate(330,395)"/>
<path d="M0 0 C2 2 2 2 2.1953125 4.6015625 C2.17210937 5.59929687 2.14890625 6.59703125 2.125 7.625 C2.10695313 8.62789063 2.08890625 9.63078125 2.0703125 10.6640625 C2.03550781 11.82035156 2.03550781 11.82035156 2 13 C0.68 13 -0.64 13 -2 13 C-2 9.7 -2 6.4 -2 3 C-3.32 3 -4.64 3 -6 3 C-6 6.3 -6 9.6 -6 13 C-7.32 13 -8.64 13 -10 13 C-10 8.71 -10 4.42 -10 0 C-2.9787234 -1.17021277 -2.9787234 -1.17021277 0 0 Z " fill="#B44B45" transform="translate(297,395)"/>
<path d="M0 0 C1 1 1 1 1.09765625 3.72265625 C1.08605469 4.82480469 1.07445312 5.92695313 1.0625 7.0625 C1.05347656 8.16722656 1.04445312 9.27195312 1.03515625 10.41015625 C1.02355469 11.26480469 1.01195312 12.11945313 1 13 C-0.45792884 13.05399736 -1.91642712 13.09279177 -3.375 13.125 C-4.18710938 13.14820313 -4.99921875 13.17140625 -5.8359375 13.1953125 C-8 13 -8 13 -10 11 C-9.625 8.375 -9.625 8.375 -9 6 C-5.535 5.505 -5.535 5.505 -2 5 C-2.33 4.34 -2.66 3.68 -3 3 C-4.98 3 -6.96 3 -9 3 C-9 2.01 -9 1.02 -9 0 C-5.90842747 -1.54578627 -3.31526981 -0.60277633 0 0 Z " fill="#B0413A" transform="translate(227,395)"/>
<path d="M0 0 C3.5 0.25 3.5 0.25 5.5 2.25 C5.625 4.875 5.625 4.875 5.5 7.25 C2.86 7.25 0.22 7.25 -2.5 7.25 C-2.5 8.24 -2.5 9.23 -2.5 10.25 C0.14 10.25 2.78 10.25 5.5 10.25 C5.17 11.24 4.84 12.23 4.5 13.25 C-2.86270368 13.73280024 -2.86270368 13.73280024 -5.5625 11.6875 C-6.89274773 8.2288559 -6.35607025 5.8059841 -5.5 2.25 C-3.5 0.25 -3.5 0.25 0 0 Z " fill="#B95650" transform="translate(200.5,394.75)"/>
<path d="M0 0 C0.33 1.32 0.66 2.64 1 4 C0.05125 3.95875 -0.8975 3.9175 -1.875 3.875 C-5.10244856 3.65026182 -5.10244856 3.65026182 -7 6 C-7.28602162 10.14509433 -7.28602162 10.14509433 -6 14 C-3.36 14 -0.72 14 2 14 C2 14.99 2 15.98 2 17 C-1.11549872 18.55774936 -4.6044388 18.56480622 -8 18 C-10.14270994 16.44211227 -10.87912884 15.44049022 -11.58203125 12.87890625 C-11.65808594 12.11449219 -11.73414063 11.35007812 -11.8125 10.5625 C-11.94591797 9.41974609 -11.94591797 9.41974609 -12.08203125 8.25390625 C-11.98594362 5.61378432 -11.43766777 4.2056727 -10 2 C-6.3558226 -0.4294516 -4.28758728 -0.16179575 0 0 Z " fill="#B2453E" transform="translate(261,429)"/>
<path d="M0 0 C0.33 1.32 0.66 2.64 1 4 C0.05125 3.95875 -0.8975 3.9175 -1.875 3.875 C-5.10244856 3.65026182 -5.10244856 3.65026182 -7 6 C-7.28602162 10.14509433 -7.28602162 10.14509433 -6 14 C-3.36 14 -0.72 14 2 14 C2 14.99 2 15.98 2 17 C-1.11549872 18.55774936 -4.6044388 18.56480622 -8 18 C-10.14270994 16.44211227 -10.87912884 15.44049022 -11.58203125 12.87890625 C-11.65808594 12.11449219 -11.73414063 11.35007812 -11.8125 10.5625 C-11.94591797 9.41974609 -11.94591797 9.41974609 -12.08203125 8.25390625 C-11.98594362 5.61378432 -11.43766777 4.2056727 -10 2 C-6.3558226 -0.4294516 -4.28758728 -0.16179575 0 0 Z " fill="#B2453E" transform="translate(269,390)"/>
<path d="M0 0 C3.375 0.375 3.375 0.375 5.375 1.375 C5.375 2.365 5.375 3.355 5.375 4.375 C4.240625 4.354375 3.10625 4.33375 1.9375 4.3125 C-1.44075674 3.95922523 -1.44075674 3.95922523 -2.625 5.375 C-2.78553815 7.24821948 -2.78553815 7.24821948 -2.75 9.375 C-2.75257813 10.096875 -2.75515625 10.81875 -2.7578125 11.5625 C-2.82195276 13.39589415 -2.82195276 13.39589415 -1.625 14.375 C0.70797433 14.41592937 3.04205225 14.41741723 5.375 14.375 C5.045 15.695 4.715 17.015 4.375 18.375 C-2.87028302 18.97877358 -2.87028302 18.97877358 -6.125 16.375 C-8.05032228 12.52435544 -8.4507608 9.59744698 -7.625 5.375 C-5.50318432 1.30111389 -4.61429327 0.47734068 0 0 Z " fill="#AF3E37" transform="translate(197.625,428.625)"/>
<path d="M0 0 C1.37478516 0.01740234 1.37478516 0.01740234 2.77734375 0.03515625 C3.69644531 0.04417969 4.61554688 0.05320312 5.5625 0.0625 C6.27277344 0.07410156 6.98304688 0.08570313 7.71484375 0.09765625 C8.04484375 1.41765625 8.37484375 2.73765625 8.71484375 4.09765625 C7.72484375 4.42765625 6.73484375 4.75765625 5.71484375 5.09765625 C5.71484375 4.43765625 5.71484375 3.77765625 5.71484375 3.09765625 C3.73484375 3.09765625 1.75484375 3.09765625 -0.28515625 3.09765625 C-0.28515625 5.40765625 -0.28515625 7.71765625 -0.28515625 10.09765625 C1.69484375 10.09765625 3.67484375 10.09765625 5.71484375 10.09765625 C5.71484375 9.43765625 5.71484375 8.77765625 5.71484375 8.09765625 C6.70484375 8.09765625 7.69484375 8.09765625 8.71484375 8.09765625 C8.38484375 9.74765625 8.05484375 11.39765625 7.71484375 13.09765625 C6.06909809 13.12453776 4.42322962 13.14399748 2.77734375 13.16015625 C1.86082031 13.17175781 0.94429688 13.18335938 0 13.1953125 C-2.28515625 13.09765625 -2.28515625 13.09765625 -3.28515625 12.09765625 C-3.38366796 10.26649742 -3.41488254 8.43145692 -3.41015625 6.59765625 C-3.41273438 5.59734375 -3.4153125 4.59703125 -3.41796875 3.56640625 C-3.24540081 0.3586728 -3.20162167 0.13682144 0 0 Z " fill="#755349" transform="translate(318.28515625,361.90234375)"/>
<path d="M0 0 C1.2065625 0.0309375 1.2065625 0.0309375 2.4375 0.0625 C2.4375 1.0525 2.4375 2.0425 2.4375 3.0625 C1.4475 3.0625 0.4575 3.0625 -0.5625 3.0625 C-0.5625 4.0525 -0.5625 5.0425 -0.5625 6.0625 C0.4275 6.0625 1.4175 6.0625 2.4375 6.0625 C2.1075 7.0525 1.7775 8.0425 1.4375 9.0625 C0.7775 9.0625 0.1175 9.0625 -0.5625 9.0625 C-0.5625 12.3625 -0.5625 15.6625 -0.5625 19.0625 C-1.8825 19.0625 -3.2025 19.0625 -4.5625 19.0625 C-4.65337891 18.03189453 -4.65337891 18.03189453 -4.74609375 16.98046875 C-4.82988281 16.07941406 -4.91367188 15.17835938 -5 14.25 C-5.08121094 13.35667969 -5.16242188 12.46335937 -5.24609375 11.54296875 C-5.49739767 8.93506441 -5.49739767 8.93506441 -6.5625 6.0625 C-5.9025 6.0625 -5.2425 6.0625 -4.5625 6.0625 C-4.418125 5.258125 -4.27375 4.45375 -4.125 3.625 C-3.347189 0.08163876 -3.347189 0.08163876 0 0 Z " fill="#B54C46" transform="translate(157.5625,388.9375)"/>
<path d="M0 0 C6.93359375 -0.09765625 6.93359375 -0.09765625 9 0 C10 1 10 1 10.0625 3.9375 C10.041875 4.948125 10.02125 5.95875 10 7 C9.8509288 9.0745356 9.8509288 9.0745356 11 11 C7.64404172 10.40072174 5.62198774 9.15377564 3 7 C3 8.32 3 9.64 3 11 C2.01 11 1.02 11 0 11 C0 7.37 0 3.74 0 0 Z " fill="#957B73" transform="translate(344,364)"/>
<path d="M0 0 C0.99 0 1.98 0 3 0 C3.33 2.97 3.66 5.94 4 9 C4.99 9 5.98 9 7 9 C7.33 6.03 7.66 3.06 8 0 C8.99 0 9.98 0 11 0 C11 4.29 11 8.58 11 13 C7.7 13 4.4 13 1 13 C-0.32229189 10.35541621 -0.09677194 8.32238699 -0.0625 5.375 C-0.05347656 4.37210937 -0.04445313 3.36921875 -0.03515625 2.3359375 C-0.02355469 1.56507813 -0.01195312 0.79421875 0 0 Z " fill="#AE3D36" transform="translate(367,395)"/>
<path d="M0 0 C0.99 0 1.98 0 3 0 C3 1.32 3 2.64 3 4 C3.99 4 4.98 4 6 4 C6 4.99 6 5.98 6 7 C5.01 7 4.02 7 3 7 C3 9.31 3 11.62 3 14 C3.99 14 4.98 14 6 14 C6 14.99 6 15.98 6 17 C3.625 17.125 3.625 17.125 1 17 C-1.54115245 14.45884755 -1.43562323 12.44778721 -1.75390625 8.97265625 C-1.96047055 6.7913298 -1.96047055 6.7913298 -3 4 C-2.34 4 -1.68 4 -1 4 C-0.67 2.68 -0.34 1.36 0 0 Z " fill="#B54C46" transform="translate(171,391)"/>
<path d="M0 0 C6.93359375 -0.09765625 6.93359375 -0.09765625 9 0 C10 1 10 1 10.1875 3.375 C10 6 10 6 8 9 C8.99 9.33 9.98 9.66 11 10 C10.01 10.33 9.02 10.66 8 11 C7.566875 10.525625 7.13375 10.05125 6.6875 9.5625 C4.97690387 7.76313043 4.97690387 7.76313043 2 7 C2 8.32 2 9.64 2 11 C1.34 11 0.68 11 0 11 C0 7.37 0 3.74 0 0 Z " fill="#735248" transform="translate(240,364)"/>
<path d="M0 0 C0.33 1.32 0.66 2.64 1 4 C-0.65 3.67 -2.3 3.34 -4 3 C-2.06745228 5.0245738 -0.36841312 6.42105792 2 8 C1.125 12.875 1.125 12.875 0 14 C-2.33297433 14.04092937 -4.66705225 14.04241723 -7 14 C-7.33 13.01 -7.66 12.02 -8 11 C-5.03 11.495 -5.03 11.495 -2 12 C-2 11.01 -2 10.02 -2 9 C-2.804375 8.7525 -3.60875 8.505 -4.4375 8.25 C-7 7 -7 7 -8 5.0625 C-8 3 -8 3 -6.875 1.25 C-4.46145349 -0.35903101 -2.84326464 -0.23053497 0 0 Z " fill="#B54E48" transform="translate(78,394)"/>
<path d="M0 0 C4.62 0 9.24 0 14 0 C14 1.98 14 3.96 14 6 C9.38 6 4.76 6 0 6 C0 4.02 0 2.04 0 0 Z " fill="#F9F0F0" transform="translate(141,338)"/>
<path d="M0 0 C4.53786224 2.26893112 5.94678157 4.09866534 9 8 C9.33 5.36 9.66 2.72 10 0 C10.66 0 11.32 0 12 0 C12 4.29 12 8.58 12 13 C8.09567131 11.04783565 5.96160056 9.12613393 3 6 C2.67 8.31 2.34 10.62 2 13 C1.34 13 0.68 13 0 13 C0 8.71 0 4.42 0 0 Z " fill="#725046" transform="translate(197,362)"/>
<path d="M0 0 C0 0.99 0 1.98 0 3 C-1.65 3 -3.3 3 -5 3 C-5 4.98 -5 6.96 -5 9 C-3.35 9 -1.7 9 0 9 C-0.33 10.32 -0.66 11.64 -1 13 C-6.36842105 13.35789474 -6.36842105 13.35789474 -8.875 11.9375 C-10.64273274 8.8930714 -10.36823916 6.4368988 -10 3 C-7.7672032 -1.07157064 -4.21152194 -0.23838803 0 0 Z " fill="#B1443D" transform="translate(310,434)"/>
<path d="M0 0 C0.99 0 1.98 0 3 0 C3 1.32 3 2.64 3 4 C4.32 4 5.64 4 7 4 C7 4.66 7 5.32 7 6 C5.68 6 4.36 6 3 6 C3 8.64 3 11.28 3 14 C3.99 14 4.98 14 6 14 C6 14.99 6 15.98 6 17 C4.33388095 17.042721 2.66617115 17.04063832 1 17 C0 16 0 16 -0.09765625 13.93359375 C-0.08025391 12.69802734 -0.08025391 12.69802734 -0.0625 11.4375 C-0.05347656 10.61121094 -0.04445313 9.78492188 -0.03515625 8.93359375 C-0.02355469 8.29550781 -0.01195313 7.65742188 0 7 C-0.66 7 -1.32 7 -2 7 C-2 6.01 -2 5.02 -2 4 C-1.34 4 -0.68 4 0 4 C0 2.68 0 1.36 0 0 Z " fill="#AF3F39" transform="translate(106,391)"/>
<path d="M0 0 C0.99 0 1.98 0 3 0 C3 1.32 3 2.64 3 4 C3.99 4 4.98 4 6 4 C6 4.99 6 5.98 6 7 C5.01 7 4.02 7 3 7 C3 9.31 3 11.62 3 14 C3.99 14 4.98 14 6 14 C6 14.99 6 15.98 6 17 C4.33388095 17.042721 2.66617115 17.04063832 1 17 C0 16 0 16 -0.09765625 13.71484375 C-0.08025391 12.34005859 -0.08025391 12.34005859 -0.0625 10.9375 C-0.05347656 10.01839844 -0.04445313 9.09929687 -0.03515625 8.15234375 C-0.02355469 7.44207031 -0.01195312 6.73179687 0 6 C-0.66 6 -1.32 6 -2 6 C-2 5.34 -2 4.68 -2 4 C-1.34 4 -0.68 4 0 4 C0 2.68 0 1.36 0 0 Z " fill="#AF3D37" transform="translate(410,391)"/>
<path d="M0 0 C0.99 0 1.98 0 3 0 C3 1.32 3 2.64 3 4 C3.99 4 4.98 4 6 4 C6 4.99 6 5.98 6 7 C5.01 7 4.02 7 3 7 C3 9.31 3 11.62 3 14 C3.99 14 4.98 14 6 14 C6 14.99 6 15.98 6 17 C4.33388095 17.042721 2.66617115 17.04063832 1 17 C0 16 0 16 -0.09765625 13.71484375 C-0.08025391 12.34005859 -0.08025391 12.34005859 -0.0625 10.9375 C-0.05347656 10.01839844 -0.04445313 9.09929687 -0.03515625 8.15234375 C-0.02355469 7.44207031 -0.01195312 6.73179687 0 6 C-0.66 6 -1.32 6 -2 6 C-2 5.34 -2 4.68 -2 4 C-1.34 4 -0.68 4 0 4 C0 2.68 0 1.36 0 0 Z " fill="#AF3D37" transform="translate(383,391)"/>
<path d="M0 0 C0.99 0 1.98 0 3 0 C3 1.32 3 2.64 3 4 C3.99 4 4.98 4 6 4 C6 4.99 6 5.98 6 7 C5.01 7 4.02 7 3 7 C3 9.31 3 11.62 3 14 C3.99 14 4.98 14 6 14 C6 14.99 6 15.98 6 17 C4.33388095 17.042721 2.66617115 17.04063832 1 17 C0 16 0 16 -0.09765625 13.71484375 C-0.08025391 12.34005859 -0.08025391 12.34005859 -0.0625 10.9375 C-0.05347656 10.01839844 -0.04445313 9.09929687 -0.03515625 8.15234375 C-0.02355469 7.44207031 -0.01195313 6.73179687 0 6 C-0.66 6 -1.32 6 -2 6 C-2 5.34 -2 4.68 -2 4 C-1.34 4 -0.68 4 0 4 C0 2.68 0 1.36 0 0 Z " fill="#AF3D37" transform="translate(83,391)"/>
<path d="M0 0 C1.32 0 2.64 0 4 0 C4 5.94 4 11.88 4 18 C2.68 18 1.36 18 0 18 C0 12.06 0 6.12 0 0 Z " fill="#AC3A33" transform="translate(196,339)"/>
<path d="M0 0 C1.670625 0.061875 1.670625 0.061875 3.375 0.125 C3.045 1.115 2.715 2.105 2.375 3.125 C1.055 2.795 -0.265 2.465 -1.625 2.125 C-1.625 4.435 -1.625 6.745 -1.625 9.125 C0.355 9.125 2.335 9.125 4.375 9.125 C4.045 10.445 3.715 11.765 3.375 13.125 C0 13.25 0 13.25 -3.625 13.125 C-5.625 11.125 -5.625 11.125 -5.890625 9.03125 C-5.88289063 7.84015625 -5.88289063 7.84015625 -5.875 6.625 C-5.88015625 5.8309375 -5.8853125 5.036875 -5.890625 4.21875 C-5.38436796 0.22825337 -3.79812269 0.13096975 0 0 Z " fill="#B0423B" transform="translate(314.625,394.875)"/>
<path d="M0 0 C0.66 0.66 1.32 1.32 2 2 C5.58343976 2.16677282 5.58343976 2.16677282 9 2 C9.33 2.99 9.66 3.98 10 5 C7.69 5.66 5.38 6.32 3 7 C2.67 8.65 2.34 10.3 2 12 C1.34 12 0.68 12 0 12 C0 11.34 0 10.68 0 10 C-0.99 10 -1.98 10 -3 10 C-3 7.69 -3 5.38 -3 3 C-2.01 3 -1.02 3 0 3 C0 2.01 0 1.02 0 0 Z " fill="#F9F0F0" transform="translate(89,395)"/>
<path d="M0 0 C3 1 3 1 4.16796875 2.77734375 C4.50441406 3.49019531 4.84085937 4.20304687 5.1875 4.9375 C5.53167969 5.64777344 5.87585938 6.35804688 6.23046875 7.08984375 C7 9 7 9 7 11 C6.38511719 10.91621094 5.77023437 10.83242188 5.13671875 10.74609375 C4.32847656 10.64425781 3.52023437 10.54242188 2.6875 10.4375 C1.88699219 10.33308594 1.08648437 10.22867187 0.26171875 10.12109375 C-2.16817116 9.85244822 -2.16817116 9.85244822 -5 11 C-3.55049545 7.2089881 -1.84827434 3.6125362 0 0 Z " fill="#745348" transform="translate(335,364)"/>
<path d="M0 0 C0.66 0 1.32 0 2 0 C2 1.32 2 2.64 2 4 C1.01 4.33 0.02 4.66 -1 5 C-1.33 7.97 -1.66 10.94 -2 14 C-3.32 14 -4.64 14 -6 14 C-6 9.71 -6 5.42 -6 1 C-4.35 1 -2.7 1 -1 1 C-0.67 0.67 -0.34 0.34 0 0 Z " fill="#B54D47" transform="translate(225,433)"/>
<path d="M0 0 C3.56311466 1.78155733 5.35645475 3.16763009 8 6 C8.33 4.02 8.66 2.04 9 0 C9.66 0 10.32 0 11 0 C11 3.63 11 7.26 11 11 C7.43688534 9.21844267 5.64354525 7.83236991 3 5 C2.67 6.98 2.34 8.96 2 11 C1.34 11 0.68 11 0 11 C0 7.37 0 3.74 0 0 Z " fill="#78584E" transform="translate(292,364)"/>
<path d="M0 0 C4.29 0 8.58 0 13 0 C13 1.65 13 3.3 13 5 C8.71 5 4.42 5 0 5 C0 3.35 0 1.7 0 0 Z " fill="#F7EDEC" transform="translate(171,342)"/>
<path d="M0 0 C2.64 0 5.28 0 8 0 C8 0.99 8 1.98 8 3 C7.01 3.33 6.02 3.66 5 4 C4.67 6.97 4.34 9.94 4 13 C2.68 13 1.36 13 0 13 C0 8.71 0 4.42 0 0 Z " fill="#B24740" transform="translate(392,395)"/>
<path d="M0 0 C0.99 0 1.98 0 3 0 C3.8931507 6.58183362 3.95494281 12.42150508 3 19 C2.01 19 1.02 19 0 19 C0 12.73 0 6.46 0 0 Z " fill="#AB342D" transform="translate(180,389)"/>
<path d="M0 0 C0.99 0 1.98 0 3 0 C3 6.27 3 12.54 3 19 C2.01 19 1.02 19 0 19 C0 12.73 0 6.46 0 0 Z " fill="#AB342D" transform="translate(265,428)"/>
<path d="M0 0 C0.99 0 1.98 0 3 0 C3 6.27 3 12.54 3 19 C2.01 19 1.02 19 0 19 C0 12.73 0 6.46 0 0 Z " fill="#AB342D" transform="translate(335,389)"/>
<path d="M0 0 C0.99 0 1.98 0 3 0 C3 6.27 3 12.54 3 19 C2.01 19 1.02 19 0 19 C0 12.73 0 6.46 0 0 Z " fill="#AB342D" transform="translate(273,389)"/>
<path d="M0 0 C3.63 0 7.26 0 11 0 C11 0.99 11 1.98 11 3 C9.68 3 8.36 3 7 3 C7 5.64 7 8.28 7 11 C6.01 11 5.02 11 4 11 C4 8.36 4 5.72 4 3 C2.68 3 1.36 3 0 3 C0 2.01 0 1.02 0 0 Z " fill="#927870" transform="translate(258,364)"/>
<path d="M0 0 C1.32 0 2.64 0 4 0 C4 4.29 4 8.58 4 13 C2.68 13 1.36 13 0 13 C0 8.71 0 4.42 0 0 Z " fill="#B54D47" transform="translate(302,395)"/>
<path d="M0 0 C0.20086443 3.71599191 0.1519437 4.77208445 -2 8 C-3.65 7.67 -5.3 7.34 -7 7 C-7.33 5.35 -7.66 3.7 -8 2 C-4.77208445 -0.1519437 -3.71599191 -0.20086443 0 0 Z " fill="#C36E69" transform="translate(328,400)"/>
<path d="M0 0 C0.20086443 3.71599191 0.1519437 4.77208445 -2 8 C-3.65 7.67 -5.3 7.34 -7 7 C-7.33 5.35 -7.66 3.7 -8 2 C-4.77208445 -0.1519437 -3.71599191 -0.20086443 0 0 Z " fill="#C36E69" transform="translate(225,400)"/>
<path d="M0 0 C0.66 0 1.32 0 2 0 C2 2.64 2 5.28 2 8 C3.98 8 5.96 8 8 8 C8 5.36 8 2.72 8 0 C8.66 0 9.32 0 10 0 C10 3.3 10 6.6 10 10 C3.06640625 10.09765625 3.06640625 10.09765625 1 10 C0 9 0 9 -0.09765625 6.93359375 C-0.08605469 6.10988281 -0.07445312 5.28617187 -0.0625 4.4375 C-0.05347656 3.61121094 -0.04445312 2.78492188 -0.03515625 1.93359375 C-0.02355469 1.29550781 -0.01195312 0.65742188 0 0 Z " fill="#6B483D" transform="translate(214,365)"/>
<path d="M0 0 C2.31 0 4.62 0 7 0 C7 0.66 7 1.32 7 2 C6.01 2.66 5.02 3.32 4 4 C3.42006301 6.19454681 3.42006301 6.19454681 3.3125 8.625 C3.21388672 9.85089844 3.21388672 9.85089844 3.11328125 11.1015625 C3.05720703 12.04128906 3.05720703 12.04128906 3 13 C2.01 13 1.02 13 0 13 C0 8.71 0 4.42 0 0 Z " fill="#AB362F" transform="translate(232,395)"/>
<path d="M0 0 C2.97 0 5.94 0 9 0 C9 0.33 9 0.66 9 1 C6.69 1 4.38 1 2 1 C2 1.66 2 2.32 2 3 C3.32 3 4.64 3 6 3 C6 3.66 6 4.32 6 5 C4.68 5 3.36 5 2 5 C2 5.99 2 6.98 2 8 C4.31 8 6.62 8 9 8 C9 8.66 9 9.32 9 10 C6.03 10 3.06 10 0 10 C0 6.7 0 3.4 0 0 Z " fill="#6E4B41" transform="translate(358,365)"/>
<path d="M0 0 C1.98 0 3.96 0 6 0 C6 2.97 6 5.94 6 9 C5.34 9 4.68 9 4 9 C3.67 9.66 3.34 10.32 3 11 C3 10.01 3 9.02 3 8 C2.01 8 1.02 8 0 8 C0 5.36 0 2.72 0 0 Z " fill="#F3E4E3" transform="translate(109,397)"/>
<path d="M0 0 C2.125 0.375 2.125 0.375 4 1 C4 2.98 4 4.96 4 7 C2.34385343 7.38218767 0.67542976 7.71395102 -1 8 C-2 7 -2 7 -2.1875 4.5625 C-2 2 -2 2 0 0 Z " fill="#F7ECEB" transform="translate(142,397)"/>
<path d="M0 0 C1.98 0 3.96 0 6 0 C7.125 4.75 7.125 4.75 6 7 C6.99 7.33 7.98 7.66 9 8 C8.01 8.33 7.02 8.66 6 9 C5.566875 8.525625 5.13375 8.05125 4.6875 7.5625 C2.97690387 5.76313043 2.97690387 5.76313043 0 5 C0 3.35 0 1.7 0 0 Z " fill="#77564C" transform="translate(242,366)"/>
<path d="M0 0 C3.63 0 7.26 0 11 0 C11 0.66 11 1.32 11 2 C9.35 2 7.7 2 6 2 C6 4.97 6 7.94 6 11 C5.34 11 4.68 11 4 11 C4 8.03 4 5.06 4 2 C2.68 2 1.36 2 0 2 C0 1.34 0 0.68 0 0 Z " fill="#7A5B51" transform="translate(227,364)"/>
<path d="M0 0 C0.99 0 1.98 0 3 0 C3 4.29 3 8.58 3 13 C2.01 13 1.02 13 0 13 C0 8.71 0 4.42 0 0 Z " fill="#AB342D" transform="translate(294,434)"/>
<path d="M0 0 C0.99 0 1.98 0 3 0 C3 4.29 3 8.58 3 13 C2.01 13 1.02 13 0 13 C0 8.71 0 4.42 0 0 Z " fill="#AB342D" transform="translate(272,434)"/>
<path d="M0 0 C0.99 0 1.98 0 3 0 C3 4.29 3 8.58 3 13 C2.01 13 1.02 13 0 13 C0 8.71 0 4.42 0 0 Z " fill="#AB342D" transform="translate(419,395)"/>
<path d="M0 0 C0.99 0 1.98 0 3 0 C3 4.29 3 8.58 3 13 C2.01 13 1.02 13 0 13 C0 8.71 0 4.42 0 0 Z " fill="#AB342D" transform="translate(402,395)"/>
<path d="M0 0 C0.99 0 1.98 0 3 0 C3 4.29 3 8.58 3 13 C2.34 13 1.68 13 1 13 C1 12.34 1 11.68 1 11 C0.34 11 -0.32 11 -1 11 C-0.67 7.37 -0.34 3.74 0 0 Z " fill="#AB342D" transform="translate(375,395)"/>
<path d="M0 0 C0.99 0 1.98 0 3 0 C3 4.29 3 8.58 3 13 C2.01 13 1.02 13 0 13 C0 8.71 0 4.42 0 0 Z " fill="#AB342D" transform="translate(280,395)"/>
<path d="M0 0 C2.0625 0.4375 2.0625 0.4375 4 1 C4 3.31 4 5.62 4 8 C2.35 8 0.7 8 -1 8 C-1.04241723 5.66705225 -1.04092937 3.33297433 -1 1 C-0.67 0.67 -0.34 0.34 0 0 Z " fill="#FAF4F4" transform="translate(430,397)"/>
<path d="M0 0 C1.98 0 3.96 0 6 0 C6 1.98 6 3.96 6 6 C4.02 6 2.04 6 0 6 C0 4.02 0 2.04 0 0 Z " fill="#F9F8F7" transform="translate(280,367)"/>
<path d="M0 0 C0.66 0 1.32 0 2 0 C5 4.38461538 5 4.38461538 5 7 C2.36 7 -0.28 7 -3 7 C-1.125 2.25 -1.125 2.25 0 0 Z " fill="#F2E0DF" transform="translate(242,343)"/>
<path d="M0 0 C0.33 0 0.66 0 1 0 C1 3.3 1 6.6 1 10 C-2.3 10 -5.6 10 -9 10 C-7 8 -7 8 -3.875 7.875 C-2.92625 7.91625 -1.9775 7.9575 -1 8 C-1.020625 6.865625 -1.04125 5.73125 -1.0625 4.5625 C-1 1 -1 1 0 0 Z " fill="#704E44" transform="translate(287,365)"/>
<path d="M0 0 C0.99 0 1.98 0 3 0 C3 3.63 3 7.26 3 11 C2.01 11 1.02 11 0 11 C0 7.37 0 3.74 0 0 Z " fill="#90766E" transform="translate(271,364)"/>
<path d="M0 0 C0.99 0 1.98 0 3 0 C3 3.63 3 7.26 3 11 C2.01 11 1.02 11 0 11 C0 7.37 0 3.74 0 0 Z " fill="#8D7269" transform="translate(253,364)"/>
<path d="M0 0 C0.66 0 1.32 0 2 0 C2 0.66 2 1.32 2 2 C2.99 2 3.98 2 5 2 C5.66 3.98 6.32 5.96 7 8 C2.545 7.01 2.545 7.01 -2 6 C-1.34 4.02 -0.68 2.04 0 0 Z " fill="#988078" transform="translate(335,367)"/>
<path d="M0 0 C0.598125 0.226875 1.19625 0.45375 1.8125 0.6875 C0.8225 1.0175 -0.1675 1.3475 -1.1875 1.6875 C-1.41359337 3.81114481 -1.41359337 3.81114481 0.3125 5.3125 C0.8075 5.76625 1.3025 6.22 1.8125 6.6875 C-0.1675 6.6875 -2.1475 6.6875 -4.1875 6.6875 C-4.875 4.875 -4.875 4.875 -5.1875 2.6875 C-3.58493056 0.24147296 -2.95482043 -0.4221172 0 0 Z " fill="#AE3D36" transform="translate(210.1875,440.3125)"/>
<path d="M0 0 C0.598125 0.226875 1.19625 0.45375 1.8125 0.6875 C0.8225 1.0175 -0.1675 1.3475 -1.1875 1.6875 C-1.41359337 3.81114481 -1.41359337 3.81114481 0.3125 5.3125 C0.8075 5.76625 1.3025 6.22 1.8125 6.6875 C-0.1675 6.6875 -2.1475 6.6875 -4.1875 6.6875 C-4.875 4.875 -4.875 4.875 -5.1875 2.6875 C-3.58493056 0.24147296 -2.95482043 -0.4221172 0 0 Z " fill="#AE3D36" transform="translate(96.1875,401.3125)"/>
<path d="M0 0 C3.3 0 6.6 0 10 0 C10.33 1.32 10.66 2.64 11 4 C10.01 4.33 9.02 4.66 8 5 C8 4.34 8 3.68 8 3 C7.05125 3.061875 6.1025 3.12375 5.125 3.1875 C4.09375 3.125625 3.0625 3.06375 2 3 C1.34 2.01 0.68 1.02 0 0 Z " fill="#91776F" transform="translate(316,362)"/>
<path d="M0 0 C2.64 0 5.28 0 8 0 C7.34 1.32 6.68 2.64 6 4 C4.35 3.67 2.7 3.34 1 3 C0.67 2.01 0.34 1.02 0 0 Z " fill="#F0DCDB" transform="translate(232,441)"/>
<path d="M0 0 C2.64 0 5.28 0 8 0 C8 0.99 8 1.98 8 3 C5.36 3 2.72 3 0 3 C0 2.01 0 1.02 0 0 Z " fill="#F5E8E7" transform="translate(198,402)"/>
<path d="M0 0 C2.64 0 5.28 0 8 0 C8 0.99 8 1.98 8 3 C5.36 3 2.72 3 0 3 C0 2.01 0 1.02 0 0 Z " fill="#F6EAEA" transform="translate(118,402)"/>
<path d="M0 0 C1.98 0.99 1.98 0.99 4 2 C3.67 2.66 3.34 3.32 3 4 C2.34 4 1.68 4 1 4 C1 6.97 1 9.94 1 13 C0.67 13 0.34 13 0 13 C0 8.71 0 4.42 0 0 Z " fill="#69453A" transform="translate(197,362)"/>
<path d="M0 0 C2.31 0 4.62 0 7 0 C7 0.99 7 1.98 7 3 C5.02 3 3.04 3 1 3 C0.67 2.01 0.34 1.02 0 0 Z " fill="#BA5953" transform="translate(208,400)"/>
<path d="M0 0 C2.31 0 4.62 0 7 0 C7 0.99 7 1.98 7 3 C5.02 3 3.04 3 1 3 C0.67 2.01 0.34 1.02 0 0 Z " fill="#BA5953" transform="translate(160,400)"/>
<path d="M0 0 C2 3 2 3 2 7 C0.68 7 -0.64 7 -2 7 C-1.125 1.125 -1.125 1.125 0 0 Z " fill="#F3E3E2" transform="translate(54,394)"/>
<path d="M0 0 C0.99 0 1.98 0 3 0 C3 1.32 3 2.64 3 4 C0.03 3.67 -2.94 3.34 -6 3 C-6 2.67 -6 2.34 -6 2 C-4.02 2 -2.04 2 0 2 C0 1.34 0 0.68 0 0 Z " fill="#967D75" transform="translate(324,370)"/>
<path d="M0 0 C1.98 0 3.96 0 6 0 C6 0.99 6 1.98 6 3 C4.02 3 2.04 3 0 3 C0 2.01 0 1.02 0 0 Z " fill="#ECE7E6" transform="translate(242,366)"/>
</svg>
